<svg width="1920" height="1084" viewBox="0 0 1920 1084" fill="none" xmlns="http://www.w3.org/2000/svg">
<rect width="1920" height="1080" fill="#FFFEFE"/>
<rect y="2" width="120" height="120" fill="#CCEBC7"/>
<rect x="120" y="120" width="120" height="120" fill="#CCEBC7"/>
<rect y="960" width="120" height="120" fill="#CCEBC7"/>
<rect y="720" width="120" height="120" fill="#CCEBC7"/>
<rect y="480" width="120" height="120" fill="#CCEBC7"/>
<rect y="240" width="120" height="120" fill="#CCEBC7"/>
<rect x="117" y="602" width="120" height="120" fill="#CCEBC7"/>
<rect x="117" y="840" width="120" height="120" fill="#CCEBC7"/>
<rect x="117" y="360" width="120" height="120" fill="#CCEBC7"/>
<rect x="363" y="122" width="120" height="120" fill="#CCEBC7"/>
<rect x="360" y="604" width="120" height="120" fill="#CCEBC7"/>
<rect x="360" y="842" width="120" height="120" fill="#CCEBC7"/>
<rect x="360" y="362" width="120" height="120" fill="#CCEBC7"/>
<rect x="237" width="120" height="120" fill="#CCEBC7"/>
<rect x="237" y="960" width="120" height="120" fill="#CCEBC7"/>
<rect x="237" y="720" width="120" height="120" fill="#CCEBC7"/>
<rect x="237" y="480" width="120" height="120" fill="#CCEBC7"/>
<rect x="237" y="240" width="120" height="120" fill="#CCEBC7"/>
<rect x="483" y="2" width="120" height="120" fill="#CCEBC7"/>
<rect x="603" y="120" width="120" height="120" fill="#CCEBC7"/>
<rect x="483" y="960" width="120" height="120" fill="#CCEBC7"/>
<rect x="483" y="720" width="120" height="120" fill="#CCEBC7"/>
<rect x="483" y="480" width="120" height="120" fill="#CCEBC7"/>
<rect x="483" y="240" width="120" height="120" fill="#CCEBC7"/>
<rect x="600" y="602" width="120" height="120" fill="#CCEBC7"/>
<rect x="600" y="840" width="120" height="120" fill="#CCEBC7"/>
<rect x="600" y="360" width="120" height="120" fill="#CCEBC7"/>
<rect x="840" y="120" width="120" height="120" fill="#CCEBC7"/>
<rect x="837" y="602" width="120" height="120" fill="#CCEBC7"/>
<rect x="837" y="840" width="120" height="120" fill="#CCEBC7"/>
<rect x="837" y="360" width="120" height="120" fill="#CCEBC7"/>
<rect x="720" width="120" height="120" fill="#CCEBC7"/>
<rect x="720" y="960" width="120" height="120" fill="#CCEBC7"/>
<rect x="720" y="720" width="120" height="120" fill="#CCEBC7"/>
<rect x="720" y="480" width="120" height="120" fill="#CCEBC7"/>
<rect x="720" y="240" width="120" height="120" fill="#CCEBC7"/>
<rect x="960" y="4" width="120" height="120" fill="#CCEBC7"/>
<rect x="1080" y="124" width="120" height="120" fill="#CCEBC7"/>
<rect x="960" y="962" width="120" height="120" fill="#CCEBC7"/>
<rect x="960" y="722" width="120" height="120" fill="#CCEBC7"/>
<rect x="960" y="482" width="120" height="120" fill="#CCEBC7"/>
<rect x="960" y="242" width="120" height="120" fill="#CCEBC7"/>
<rect x="1077" y="606" width="120" height="120" fill="#CCEBC7"/>
<rect x="1077" y="844" width="120" height="120" fill="#CCEBC7"/>
<rect x="1077" y="364" width="120" height="120" fill="#CCEBC7"/>
<rect x="1323" y="126" width="120" height="120" fill="#CCEBC7"/>
<rect x="1320" y="608" width="120" height="120" fill="#CCEBC7"/>
<rect x="1320" y="846" width="120" height="120" fill="#CCEBC7"/>
<rect x="1320" y="366" width="120" height="120" fill="#CCEBC7"/>
<rect x="1197" y="4" width="120" height="120" fill="#CCEBC7"/>
<rect x="1197" y="964" width="120" height="120" fill="#CCEBC7"/>
<rect x="1197" y="724" width="120" height="120" fill="#CCEBC7"/>
<rect x="1197" y="484" width="120" height="120" fill="#CCEBC7"/>
<rect x="1197" y="244" width="120" height="120" fill="#CCEBC7"/>
<rect x="1443" y="6" width="120" height="120" fill="#CCEBC7"/>
<rect x="1563" y="124" width="120" height="120" fill="#CCEBC7"/>
<rect x="1443" y="964" width="120" height="120" fill="#CCEBC7"/>
<rect x="1443" y="724" width="120" height="120" fill="#CCEBC7"/>
<rect x="1443" y="484" width="120" height="120" fill="#CCEBC7"/>
<rect x="1443" y="244" width="120" height="120" fill="#CCEBC7"/>
<rect x="1560" y="606" width="120" height="120" fill="#CCEBC7"/>
<rect x="1560" y="844" width="120" height="120" fill="#CCEBC7"/>
<rect x="1560" y="364" width="120" height="120" fill="#CCEBC7"/>
<rect x="1800" y="126" width="120" height="120" fill="#CCEBC7"/>
<rect x="1797" y="608" width="120" height="120" fill="#CCEBC7"/>
<rect x="1797" y="846" width="120" height="120" fill="#CCEBC7"/>
<rect x="1797" y="366" width="120" height="120" fill="#CCEBC7"/>
<rect x="1680" y="4" width="120" height="120" fill="#CCEBC7"/>
<rect x="1680" y="964" width="120" height="120" fill="#CCEBC7"/>
<rect x="1680" y="724" width="120" height="120" fill="#CCEBC7"/>
<rect x="1680" y="484" width="120" height="120" fill="#CCEBC7"/>
<rect x="1680" y="244" width="120" height="120" fill="#CCEBC7"/>
</svg>
