<svg width="33" height="33" viewBox="0 0 33 33" fill="none" xmlns="http://www.w3.org/2000/svg">
<path d="M8.44434 12.7413C8.44434 11.6017 8.89704 10.5088 9.70285 9.70297C10.5087 8.89716 11.6016 8.44446 12.7412 8.44446H26.7031C27.2673 8.44446 27.8261 8.5556 28.3474 8.77154C28.8687 8.98747 29.3424 9.30397 29.7414 9.70297C30.1404 10.102 30.4569 10.5756 30.6728 11.097C30.8888 11.6183 30.9999 12.177 30.9999 12.7413V26.7032C30.9999 27.2674 30.8888 27.8262 30.6728 28.3475C30.4569 28.8688 30.1404 29.3425 29.7414 29.7415C29.3424 30.1405 28.8687 30.457 28.3474 30.6729C27.8261 30.8889 27.2673 31 26.7031 31H12.7412C12.1769 31 11.6182 30.8889 11.0968 30.6729C10.5755 30.457 10.1018 30.1405 9.70285 29.7415C9.30385 29.3425 8.98735 28.8688 8.77141 28.3475C8.55548 27.8262 8.44434 27.2674 8.44434 26.7032V12.7413Z" stroke="#D1029D" stroke-width="3" stroke-linecap="round" stroke-linejoin="round"/>
<path d="M3.63044 24.1318C3.13583 23.8508 2.72443 23.4439 2.43806 22.9523C2.15169 22.4608 2.00055 21.9022 2 21.3333V5.22222C2 3.45 3.45 2 5.22222 2H21.3333C22.5417 2 23.199 2.62028 23.75 3.61111" stroke="#D1029D" stroke-width="3" stroke-linecap="round" stroke-linejoin="round"/>
</svg>
