<svg width="314" height="314" viewBox="0 0 314 314" fill="none" xmlns="http://www.w3.org/2000/svg">
<path d="M82.12 238.12C113.136 238.12 138.28 212.976 138.28 181.96C138.28 150.943 113.136 125.8 82.12 125.8C51.1036 125.8 25.96 150.943 25.96 181.96C25.96 212.976 51.1036 238.12 82.12 238.12Z" stroke="black" stroke-width="1.5" stroke-linecap="round" stroke-linejoin="round"/>
<path d="M231.88 113.32C262.896 113.32 288.04 88.1763 288.04 57.16C288.04 26.1437 262.896 1 231.88 1C200.864 1 175.72 26.1437 175.72 57.16C175.72 88.1763 200.864 113.32 231.88 113.32Z" stroke="black" stroke-width="1.5" stroke-linecap="round" stroke-linejoin="round"/>
<path d="M150.76 188.2C150.76 163.24 169.48 113.32 231.88 113.32C294.28 113.32 313 163.24 313 188.2M1 313C1 288.04 19.72 238.12 82.12 238.12C144.52 238.12 163.24 288.04 163.24 313" stroke="black" stroke-width="1.5" stroke-linecap="round" stroke-linejoin="round"/>
</svg>
