<svg width="324" height="324" viewBox="0 0 324 324" fill="none" xmlns="http://www.w3.org/2000/svg">
<g filter="url(#filter0_d_28_6)">
<path d="M83.12 239.12C114.136 239.12 139.28 213.976 139.28 182.96C139.28 151.943 114.136 126.8 83.12 126.8C52.1036 126.8 26.96 151.943 26.96 182.96C26.96 213.976 52.1036 239.12 83.12 239.12Z" stroke="#D1029D" stroke-width="4" stroke-linecap="round" stroke-linejoin="round"/>
<path d="M232.88 114.32C263.896 114.32 289.04 89.1763 289.04 58.16C289.04 27.1437 263.896 2 232.88 2C201.864 2 176.72 27.1437 176.72 58.16C176.72 89.1763 201.864 114.32 232.88 114.32Z" stroke="#D1029D" stroke-width="4" stroke-linecap="round" stroke-linejoin="round"/>
<path d="M151.76 189.2C151.76 164.24 170.48 114.32 232.88 114.32C295.28 114.32 314 164.24 314 189.2M2 314C2 289.04 20.72 239.12 83.12 239.12C145.52 239.12 164.24 289.04 164.24 314" stroke="#D1029D" stroke-width="4" stroke-linecap="round" stroke-linejoin="round"/>
</g>
<defs>
<filter id="filter0_d_28_6" x="0" y="0" width="324" height="324" filterUnits="userSpaceOnUse" color-interpolation-filters="sRGB">
<feFlood flood-opacity="0" result="BackgroundImageFix"/>
<feColorMatrix in="SourceAlpha" type="matrix" values="0 0 0 0 0 0 0 0 0 0 0 0 0 0 0 0 0 0 127 0" result="hardAlpha"/>
<feOffset dx="4" dy="4"/>
<feGaussianBlur stdDeviation="2"/>
<feComposite in2="hardAlpha" operator="out"/>
<feColorMatrix type="matrix" values="0 0 0 0 1 0 0 0 0 0.857897 0 0 0 0 0.983421 0 0 0 1 0"/>
<feBlend mode="normal" in2="BackgroundImageFix" result="effect1_dropShadow_28_6"/>
<feBlend mode="normal" in="SourceGraphic" in2="effect1_dropShadow_28_6" result="shape"/>
</filter>
</defs>
</svg>
