<svg width="355" height="304" viewBox="0 0 355 304" fill="none" xmlns="http://www.w3.org/2000/svg">
<g filter="url(#filter0_d_19_2)">
<rect x="1.5" y="0.5" width="346" height="295" fill="#FFDBFB" stroke="#D1029D"/>
<rect x="30.5" y="30.5" width="131" height="83" fill="white" stroke="#D2CBCB"/>
<rect x="30.5" y="140.5" width="131" height="83" fill="white" stroke="#D2CBCB"/>
<rect x="191.5" y="140.5" width="131" height="83" fill="white" stroke="#D2CBCB"/>
<rect x="191.5" y="30.5" width="131" height="83" fill="white" stroke="#D2CBCB"/>
</g>
<path d="M108.276 263.429H109.561V264.714H108.276V263.429ZM108.276 264.714H109.561V266H108.276V264.714ZM106.99 264.714H108.276V266H106.99V264.714ZM106.99 263.429H108.276V264.714H106.99V263.429ZM105.704 264.714H106.99V266H105.704V264.714ZM105.704 263.429H106.99V264.714H105.704V263.429ZM104.419 263.429H105.704V264.714H104.419V263.429ZM104.419 262.143H105.704V263.429H104.419V262.143ZM104.419 260.857H105.704V262.143H104.419V260.857ZM104.419 259.571H105.704V260.857H104.419V259.571ZM104.419 258.286H105.704V259.571H104.419V258.286ZM104.419 257H105.704V258.286H104.419V257ZM105.704 260.857H106.99V262.143H105.704V260.857ZM105.704 262.143H106.99V263.429H105.704V262.143ZM105.704 259.571H106.99V260.857H105.704V259.571ZM105.704 258.286H106.99V259.571H105.704V258.286ZM105.704 253.143H106.99V254.429H105.704V253.143ZM105.704 254.429H106.99V255.714H105.704V254.429ZM105.704 255.714H106.99V257H105.704V255.714ZM105.704 257H106.99V258.286H105.704V257ZM104.419 255.714H105.704V257H104.419V255.714ZM103.133 257H104.419V258.286H103.133V257ZM106.99 257H108.276V258.286H106.99V257ZM108.276 257H109.561V258.286H108.276V257ZM104.419 254.429H105.704V255.714H104.419V254.429ZM103.133 258.286H104.419V259.571H103.133V258.286ZM106.99 258.286H108.276V259.571H106.99V258.286ZM108.276 258.286H109.561V259.571H108.276V258.286ZM110.844 257H112.129V258.286H110.844V257ZM110.844 255.714H112.129V257H110.844V255.714ZM112.129 255.714H113.415V257H112.129V255.714ZM112.129 257H113.415V258.286H112.129V257ZM112.129 258.286H113.415V259.571H112.129V258.286ZM112.129 259.571H113.415V260.857H112.129V259.571ZM112.129 260.857H113.415V262.143H112.129V260.857ZM110.844 260.857H112.129V262.143H110.844V260.857ZM110.844 259.571H112.129V260.857H110.844V259.571ZM110.844 258.286H112.129V259.571H110.844V258.286ZM110.844 262.143H112.129V263.429H110.844V262.143ZM112.129 262.143H113.415V263.429H112.129V262.143ZM112.129 263.429H113.415V264.714H112.129V263.429ZM112.129 264.714H113.415V266H112.129V264.714ZM110.844 264.714H112.129V266H110.844V264.714ZM110.844 263.429H112.129V264.714H110.844V263.429ZM117.272 264.714H118.558V266H117.272V264.714ZM118.558 264.714H119.844V266H118.558V264.714ZM118.558 263.429H119.844V264.714H118.558V263.429ZM118.558 262.143H119.844V263.429H118.558V262.143ZM118.558 260.857H119.844V262.143H118.558V260.857ZM118.558 259.571H119.844V260.857H118.558V259.571ZM118.558 258.286H119.844V259.571H118.558V258.286ZM118.558 257H119.844V258.286H118.558V257ZM117.272 259.571H118.558V260.857H117.272V259.571ZM117.272 260.857H118.558V262.143H117.272V260.857ZM117.272 262.143H118.558V263.429H117.272V262.143ZM117.272 263.429H118.558V264.714H117.272V263.429ZM117.272 258.286H118.558V259.571H117.272V258.286ZM113.415 257H114.701V258.286H113.415V257ZM114.701 257H115.987V258.286H114.701V257ZM115.987 257H117.272V258.286H115.987V257ZM115.987 255.714H117.272V257H115.987V255.714ZM117.272 255.714H118.558V257H117.272V255.714ZM117.272 257H118.558V258.286H117.272V257ZM114.701 255.714H115.987V257H114.701V255.714ZM110.844 253.143H112.129V254.429H110.844V253.143ZM112.129 253.143H113.415V254.429H112.129V253.143ZM112.129 254.429H113.415V255.714H112.129V254.429ZM110.844 254.429H112.129V255.714H110.844V254.429ZM123.704 255.714H124.99V257H123.704V255.714ZM122.419 255.714H123.704V257H122.419V255.714ZM122.419 257H123.704V258.286H122.419V257ZM123.704 257H124.99V258.286H123.704V257ZM124.99 255.714H126.276V257H124.99V255.714ZM126.276 255.714H127.561V257H126.276V255.714ZM127.561 255.714H128.847V257H127.561V255.714ZM127.561 257H128.847V258.286H127.561V257ZM126.276 257H127.561V258.286H126.276V257ZM128.847 257H130.133V258.286H128.847V257ZM128.847 258.286H130.133V259.571H128.847V258.286ZM128.847 263.429H130.133V264.714H128.847V263.429ZM127.561 263.429H128.847V264.714H127.561V263.429ZM127.561 258.286H128.847V259.571H127.561V258.286ZM126.276 263.429H127.561V264.714H126.276V263.429ZM127.561 264.714H128.847V266H127.561V264.714ZM126.276 264.714H127.561V266H126.276V264.714ZM124.99 264.714H126.276V266H124.99V264.714ZM123.704 264.714H124.99V266H123.704V264.714ZM122.419 264.714H123.704V266H122.419V264.714ZM122.419 263.429H123.704V264.714H122.419V263.429ZM123.704 263.429H124.99V264.714H123.704V263.429ZM122.419 262.143H123.704V263.429H122.419V262.143ZM121.133 263.429H122.419V264.714H121.133V263.429ZM121.133 262.143H122.419V263.429H121.133V262.143ZM121.133 260.857H122.419V262.143H121.133V260.857ZM121.133 259.571H122.419V260.857H121.133V259.571ZM121.133 258.286H122.419V259.571H121.133V258.286ZM121.133 257H122.419V258.286H121.133V257ZM122.419 258.286H123.704V259.571H122.419V258.286ZM122.419 259.571H123.704V260.857H122.419V259.571ZM122.419 260.857H123.704V262.143H122.419V260.857ZM124.99 263.429H126.276V264.714H124.99V263.429ZM124.99 257H126.276V258.286H124.99V257ZM127.561 259.571H128.847V260.857H127.561V259.571ZM128.847 259.571H130.133V260.857H128.847V259.571ZM123.704 260.857H124.99V262.143H123.704V260.857ZM124.99 260.857H126.276V262.143H124.99V260.857ZM126.276 260.857H127.561V262.143H126.276V260.857ZM127.561 260.857H128.847V262.143H127.561V260.857ZM128.847 260.857H130.133V262.143H128.847V260.857ZM126.276 259.571H127.561V260.857H126.276V259.571ZM124.99 259.571H126.276V260.857H124.99V259.571ZM123.704 259.571H124.99V260.857H123.704V259.571ZM136.555 255.714H137.84V257H136.555V255.714ZM137.84 255.714H139.126V257H137.84V255.714ZM137.84 257H139.126V258.286H137.84V257ZM137.84 258.286H139.126V259.571H137.84V258.286ZM137.84 259.571H139.126V260.857H137.84V259.571ZM137.84 260.857H139.126V262.143H137.84V260.857ZM136.555 260.857H137.84V262.143H136.555V260.857ZM136.555 259.571H137.84V260.857H136.555V259.571ZM136.555 258.286H137.84V259.571H136.555V258.286ZM136.555 257H137.84V258.286H136.555V257ZM137.84 262.143H139.126V263.429H137.84V262.143ZM139.126 262.143H140.412V263.429H139.126V262.143ZM139.126 263.429H140.412V264.714H139.126V263.429ZM140.412 263.429H141.698V264.714H140.412V263.429ZM140.412 264.714H141.698V266H140.412V264.714ZM141.698 263.429H142.983V264.714H141.698V263.429ZM141.698 262.143H142.983V263.429H141.698V262.143ZM142.983 262.143H144.269V263.429H142.983V262.143ZM142.983 260.857H144.269V262.143H142.983V260.857ZM142.983 259.571H144.269V260.857H142.983V259.571ZM142.983 258.286H144.269V259.571H142.983V258.286ZM142.983 257H144.269V258.286H142.983V257ZM142.983 255.714H144.269V257H142.983V255.714ZM144.269 259.571H145.555V260.857H144.269V259.571ZM144.269 260.857H145.555V262.143H144.269V260.857ZM144.269 258.286H145.555V259.571H144.269V258.286ZM144.269 257H145.555V258.286H144.269V257ZM144.269 255.714H145.555V257H144.269V255.714ZM140.412 262.143H141.698V263.429H140.412V262.143ZM139.126 260.857H140.412V262.143H139.126V260.857ZM141.698 260.857H142.983V262.143H141.698V260.857ZM146.844 253.143H149.415V255.714H146.844V253.143ZM146.844 257H149.415V266H146.844V257ZM150.711 257H151.997V258.286H150.711V257ZM150.711 255.714H151.997V257H150.711V255.714ZM151.997 255.714H153.282V257H151.997V255.714ZM151.997 257H153.282V258.286H151.997V257ZM151.997 258.286H153.282V259.571H151.997V258.286ZM151.997 259.571H153.282V260.857H151.997V259.571ZM151.997 260.857H153.282V262.143H151.997V260.857ZM150.711 260.857H151.997V262.143H150.711V260.857ZM150.711 259.571H151.997V260.857H150.711V259.571ZM150.711 258.286H151.997V259.571H150.711V258.286ZM150.711 262.143H151.997V263.429H150.711V262.143ZM151.997 262.143H153.282V263.429H151.997V262.143ZM151.997 263.429H153.282V264.714H151.997V263.429ZM151.997 264.714H153.282V266H151.997V264.714ZM150.711 264.714H151.997V266H150.711V264.714ZM150.711 263.429H151.997V264.714H150.711V263.429ZM153.282 257H154.568V258.286H153.282V257ZM154.568 257H155.854V258.286H154.568V257ZM155.854 257H157.14V258.286H155.854V257ZM155.854 255.714H157.14V257H155.854V255.714ZM154.568 255.714H155.854V257H154.568V255.714ZM153.282 258.286H154.568V259.571H153.282V258.286ZM157.14 257H158.425V258.286H157.14V257ZM155.854 258.286H157.14V259.571H155.854V258.286ZM164.854 263.429H166.14V264.714H164.854V263.429ZM164.854 264.714H166.14V266H164.854V264.714ZM163.568 264.714H164.854V266H163.568V264.714ZM163.568 263.429H164.854V264.714H163.568V263.429ZM162.282 264.714H163.568V266H162.282V264.714ZM162.282 263.429H163.568V264.714H162.282V263.429ZM160.997 263.429H162.282V264.714H160.997V263.429ZM160.997 262.143H162.282V263.429H160.997V262.143ZM160.997 260.857H162.282V262.143H160.997V260.857ZM160.997 259.571H162.282V260.857H160.997V259.571ZM160.997 258.286H162.282V259.571H160.997V258.286ZM160.997 257H162.282V258.286H160.997V257ZM162.282 260.857H163.568V262.143H162.282V260.857ZM162.282 262.143H163.568V263.429H162.282V262.143ZM162.282 259.571H163.568V260.857H162.282V259.571ZM162.282 258.286H163.568V259.571H162.282V258.286ZM162.282 253.143H163.568V254.429H162.282V253.143ZM162.282 254.429H163.568V255.714H162.282V254.429ZM162.282 255.714H163.568V257H162.282V255.714ZM162.282 257H163.568V258.286H162.282V257ZM160.997 255.714H162.282V257H160.997V255.714ZM159.711 257H160.997V258.286H159.711V257ZM163.568 257H164.854V258.286H163.568V257ZM164.854 257H166.14V258.286H164.854V257ZM160.997 254.429H162.282V255.714H160.997V254.429ZM159.711 258.286H160.997V259.571H159.711V258.286ZM163.568 258.286H164.854V259.571H163.568V258.286ZM164.854 258.286H166.14V259.571H164.854V258.286ZM176.422 264.714H175.136V263.429H176.422V264.714ZM176.422 266H175.136V264.714H176.422V266ZM175.136 266H173.85V264.714H175.136V266ZM175.136 264.714H173.85V263.429H175.136V264.714ZM175.136 263.429H173.85V262.143H175.136V263.429ZM175.136 262.143H173.85V260.857H175.136V262.143ZM175.136 260.857H173.85V259.571H175.136V260.857ZM176.422 260.857H175.136V259.571H176.422V260.857ZM176.422 262.143H175.136V260.857H176.422V262.143ZM176.422 263.429H175.136V262.143H176.422V263.429ZM176.422 259.571H175.136V258.286H176.422V259.571ZM175.136 259.571H173.85V258.286H175.136V259.571ZM175.136 258.286H173.85V257H175.136V258.286ZM175.136 257H173.85V255.714H175.136V257ZM176.422 257H175.136V255.714H176.422V257ZM176.422 258.286H175.136V257H176.422V258.286ZM169.993 257H168.708V255.714H169.993V257ZM168.708 257H167.422V255.714H168.708V257ZM168.708 258.286H167.422V257H168.708V258.286ZM168.708 259.571H167.422V258.286H168.708V259.571ZM168.708 260.857H167.422V259.571H168.708V260.857ZM168.708 262.143H167.422V260.857H168.708V262.143ZM168.708 263.429H167.422V262.143H168.708V263.429ZM168.708 264.714H167.422V263.429H168.708V264.714ZM169.993 262.143H168.708V260.857H169.993V262.143ZM169.993 260.857H168.708V259.571H169.993V260.857ZM169.993 259.571H168.708V258.286H169.993V259.571ZM169.993 258.286H168.708V257H169.993V258.286ZM169.993 263.429H168.708V262.143H169.993V263.429ZM173.85 264.714H172.565V263.429H173.85V264.714ZM172.565 264.714H171.279V263.429H172.565V264.714ZM171.279 264.714H169.993V263.429H171.279V264.714ZM171.279 266H169.993V264.714H171.279V266ZM169.993 266H168.708V264.714H169.993V266ZM169.993 264.714H168.708V263.429H169.993V264.714ZM172.565 266H171.279V264.714H172.565V266ZM185.425 266H184.14V264.714H185.425V266ZM185.425 264.714H184.14V263.429H185.425V264.714ZM184.14 264.714H182.854V263.429H184.14V264.714ZM182.854 266H181.568V264.714H182.854V266ZM181.568 266H180.282V264.714H181.568V266ZM180.282 266H178.997V264.714H180.282V266ZM180.282 264.714H178.997V263.429H180.282V264.714ZM181.568 264.714H180.282V263.429H181.568V264.714ZM178.997 264.714H177.711V263.429H178.997V264.714ZM178.997 263.429H177.711V262.143H178.997V263.429ZM178.997 258.286H177.711V257H178.997V258.286ZM180.282 258.286H178.997V257H180.282V258.286ZM180.282 263.429H178.997V262.143H180.282V263.429ZM181.568 258.286H180.282V257H181.568V258.286ZM180.282 257H178.997V255.714H180.282V257ZM181.568 257H180.282V255.714H181.568V257ZM182.854 257H181.568V255.714H182.854V257ZM184.14 257H182.854V255.714H184.14V257ZM185.425 257H184.14V255.714H185.425V257ZM185.425 258.286H184.14V257H185.425V258.286ZM184.14 258.286H182.854V257H184.14V258.286ZM185.425 259.571H184.14V258.286H185.425V259.571ZM186.711 258.286H185.425V257H186.711V258.286ZM186.711 259.571H185.425V258.286H186.711V259.571ZM186.711 260.857H185.425V259.571H186.711V260.857ZM186.711 262.143H185.425V260.857H186.711V262.143ZM186.711 263.429H185.425V262.143H186.711V263.429ZM186.711 264.714H185.425V263.429H186.711V264.714ZM185.425 263.429H184.14V262.143H185.425V263.429ZM185.425 262.143H184.14V260.857H185.425V262.143ZM185.425 260.857H184.14V259.571H185.425V260.857ZM182.854 258.286H181.568V257H182.854V258.286ZM182.854 264.714H181.568V263.429H182.854V264.714ZM185.425 264.714H186.711V266H185.425V264.714ZM182.854 259.571H184.14V260.857H182.854V259.571ZM181.568 259.571H182.854V260.857H181.568V259.571ZM180.282 259.571H181.568V260.857H180.282V259.571ZM178.997 259.571H180.282V260.857H178.997V259.571ZM177.711 260.857H178.997V262.143H177.711V260.857ZM178.997 260.857H180.282V262.143H178.997V260.857ZM182.854 260.857H184.14V262.143H182.854V260.857ZM181.568 260.857H182.854V262.143H181.568V260.857ZM180.282 260.857H181.568V262.143H180.282V260.857ZM188 253.143H189.286V254.429H188V253.143ZM189.286 253.143H190.571V254.429H189.286V253.143ZM189.286 254.429H190.571V255.714H189.286V254.429ZM189.286 255.714H190.571V257H189.286V255.714ZM189.286 257H190.571V258.286H189.286V257ZM189.286 258.286H190.571V259.571H189.286V258.286ZM189.286 259.571H190.571V260.857H189.286V259.571ZM188 259.571H189.286V260.857H188V259.571ZM188 260.857H189.286V262.143H188V260.857ZM188 262.143H189.286V263.429H188V262.143ZM188 263.429H189.286V264.714H188V263.429ZM188 264.714H189.286V266H188V264.714ZM189.286 264.714H190.571V266H189.286V264.714ZM189.286 263.429H190.571V264.714H189.286V263.429ZM189.286 262.143H190.571V263.429H189.286V262.143ZM189.286 260.857H190.571V262.143H189.286V260.857ZM188 258.286H189.286V259.571H188V258.286ZM188 257H189.286V258.286H188V257ZM188 255.714H189.286V257H188V255.714ZM188 254.429H189.286V255.714H188V254.429ZM197 257H198.286V258.286H197V257ZM197 255.714H198.286V257H197V255.714ZM198.286 255.714H199.571V257H198.286V255.714ZM198.286 257H199.571V258.286H198.286V257ZM198.286 258.286H199.571V259.571H198.286V258.286ZM198.286 259.571H199.571V260.857H198.286V259.571ZM198.286 260.857H199.571V262.143H198.286V260.857ZM197 260.857H198.286V262.143H197V260.857ZM197 259.571H198.286V260.857H197V259.571ZM197 258.286H198.286V259.571H197V258.286ZM197 262.143H198.286V263.429H197V262.143ZM198.286 262.143H199.571V263.429H198.286V262.143ZM198.286 263.429H199.571V264.714H198.286V263.429ZM198.286 264.714H199.571V266H198.286V264.714ZM197 264.714H198.286V266H197V264.714ZM197 263.429H198.286V264.714H197V263.429ZM203.429 264.714H204.714V266H203.429V264.714ZM204.714 263.429H206V264.714H204.714V263.429ZM204.714 262.143H206V263.429H204.714V262.143ZM204.714 260.857H206V262.143H204.714V260.857ZM204.714 259.571H206V260.857H204.714V259.571ZM204.714 258.286H206V259.571H204.714V258.286ZM204.714 257H206V258.286H204.714V257ZM203.429 259.571H204.714V260.857H203.429V259.571ZM203.429 260.857H204.714V262.143H203.429V260.857ZM203.429 262.143H204.714V263.429H203.429V262.143ZM203.429 263.429H204.714V264.714H203.429V263.429ZM203.429 258.286H204.714V259.571H203.429V258.286ZM199.571 257H200.857V258.286H199.571V257ZM200.857 257H202.143V258.286H200.857V257ZM202.143 257H203.429V258.286H202.143V257ZM202.143 255.714H203.429V257H202.143V255.714ZM203.429 255.714H204.714V257H203.429V255.714ZM203.429 257H204.714V258.286H203.429V257ZM200.857 255.714H202.143V257H200.857V255.714ZM197 253.143H198.286V254.429H197V253.143ZM198.286 253.143H199.571V254.429H198.286V253.143ZM198.286 254.429H199.571V255.714H198.286V254.429ZM197 254.429H198.286V255.714H197V254.429ZM199.571 264.714H200.857V266H199.571V264.714ZM200.857 264.714H202.143V266H200.857V264.714ZM202.143 264.714H203.429V266H202.143V264.714ZM202.143 263.429H203.429V264.714H202.143V263.429ZM200.857 263.429H202.143V264.714H200.857V263.429ZM199.571 263.429H200.857V264.714H199.571V263.429ZM209.86 255.714H211.146V257H209.86V255.714ZM208.575 255.714H209.86V257H208.575V255.714ZM208.575 257H209.86V258.286H208.575V257ZM209.86 257H211.146V258.286H209.86V257ZM211.146 255.714H212.432V257H211.146V255.714ZM212.432 255.714H213.718V257H212.432V255.714ZM213.718 255.714H215.003V257H213.718V255.714ZM213.718 257H215.003V258.286H213.718V257ZM212.432 257H213.718V258.286H212.432V257ZM213.718 259.571H215.003V260.857H213.718V259.571ZM215.003 257H216.289V258.286H215.003V257ZM215.003 258.286H216.289V259.571H215.003V258.286ZM215.003 259.571H216.289V260.857H215.003V259.571ZM215.003 260.857H216.289V262.143H215.003V260.857ZM215.003 262.143H216.289V263.429H215.003V262.143ZM215.003 263.429H216.289V264.714H215.003V263.429ZM213.718 263.429H215.003V264.714H213.718V263.429ZM213.718 262.143H215.003V263.429H213.718V262.143ZM213.718 260.857H215.003V262.143H213.718V260.857ZM213.718 258.286H215.003V259.571H213.718V258.286ZM212.432 263.429H213.718V264.714H212.432V263.429ZM213.718 264.714H215.003V266H213.718V264.714ZM212.432 264.714H213.718V266H212.432V264.714ZM211.146 264.714H212.432V266H211.146V264.714ZM209.86 264.714H211.146V266H209.86V264.714ZM208.575 264.714H209.86V266H208.575V264.714ZM208.575 263.429H209.86V264.714H208.575V263.429ZM209.86 263.429H211.146V264.714H209.86V263.429ZM208.575 262.143H209.86V263.429H208.575V262.143ZM207.289 263.429H208.575V264.714H207.289V263.429ZM207.289 262.143H208.575V263.429H207.289V262.143ZM207.289 260.857H208.575V262.143H207.289V260.857ZM207.289 259.571H208.575V260.857H207.289V259.571ZM207.289 258.286H208.575V259.571H207.289V258.286ZM207.289 257H208.575V258.286H207.289V257ZM208.575 258.286H209.86V259.571H208.575V258.286ZM208.575 259.571H209.86V260.857H208.575V259.571ZM208.575 260.857H209.86V262.143H208.575V260.857ZM211.146 263.429H212.432V264.714H211.146V263.429ZM211.146 257H212.432V258.286H211.146V257ZM220.15 255.714H221.435V257H220.15V255.714ZM218.864 255.714H220.15V257H218.864V255.714ZM218.864 257H220.15V258.286H218.864V257ZM220.15 257H221.435V258.286H220.15V257ZM221.435 255.714H222.721V257H221.435V255.714ZM222.721 255.714H224.007V257H222.721V255.714ZM224.007 255.714H225.292V257H224.007V255.714ZM224.007 257H225.292V258.286H224.007V257ZM222.721 257H224.007V258.286H222.721V257ZM224.007 259.571H225.292V260.857H224.007V259.571ZM225.292 257H226.578V258.286H225.292V257ZM225.292 258.286H226.578V259.571H225.292V258.286ZM225.292 259.571H226.578V260.857H225.292V259.571ZM225.292 260.857H226.578V262.143H225.292V260.857ZM225.292 262.143H226.578V263.429H225.292V262.143ZM225.292 263.429H226.578V264.714H225.292V263.429ZM224.007 263.429H225.292V264.714H224.007V263.429ZM224.007 262.143H225.292V263.429H224.007V262.143ZM224.007 260.857H225.292V262.143H224.007V260.857ZM224.007 258.286H225.292V259.571H224.007V258.286ZM222.721 263.429H224.007V264.714H222.721V263.429ZM224.007 264.714H225.292V266H224.007V264.714ZM222.721 264.714H224.007V266H222.721V264.714ZM221.435 264.714H222.721V266H221.435V264.714ZM220.15 264.714H221.435V266H220.15V264.714ZM218.864 264.714H220.15V266H218.864V264.714ZM218.864 263.429H220.15V264.714H218.864V263.429ZM220.15 263.429H221.435V264.714H220.15V263.429ZM218.864 262.143H220.15V263.429H218.864V262.143ZM217.578 263.429H218.864V264.714H217.578V263.429ZM217.578 262.143H218.864V263.429H217.578V262.143ZM217.578 260.857H218.864V262.143H217.578V260.857ZM217.578 259.571H218.864V260.857H217.578V259.571ZM217.578 258.286H218.864V259.571H217.578V258.286ZM217.578 257H218.864V258.286H217.578V257ZM218.864 258.286H220.15V259.571H218.864V258.286ZM218.864 259.571H220.15V260.857H218.864V259.571ZM218.864 260.857H220.15V262.143H218.864V260.857ZM221.435 263.429H222.721V264.714H221.435V263.429ZM221.435 257H222.721V258.286H221.435V257ZM233.01 263.429H234.296V264.714H233.01V263.429ZM233.01 264.714H234.296V266H233.01V264.714ZM231.724 264.714H233.01V266H231.724V264.714ZM231.724 263.429H233.01V264.714H231.724V263.429ZM230.439 264.714H231.724V266H230.439V264.714ZM230.439 263.429H231.724V264.714H230.439V263.429ZM229.153 263.429H230.439V264.714H229.153V263.429ZM229.153 262.143H230.439V263.429H229.153V262.143ZM229.153 260.857H230.439V262.143H229.153V260.857ZM229.153 259.571H230.439V260.857H229.153V259.571ZM229.153 258.286H230.439V259.571H229.153V258.286ZM229.153 257H230.439V258.286H229.153V257ZM230.439 260.857H231.724V262.143H230.439V260.857ZM230.439 262.143H231.724V263.429H230.439V262.143ZM230.439 259.571H231.724V260.857H230.439V259.571ZM230.439 258.286H231.724V259.571H230.439V258.286ZM230.439 253.143H231.724V254.429H230.439V253.143ZM230.439 254.429H231.724V255.714H230.439V254.429ZM230.439 255.714H231.724V257H230.439V255.714ZM230.439 257H231.724V258.286H230.439V257ZM229.153 255.714H230.439V257H229.153V255.714ZM227.867 257H229.153V258.286H227.867V257ZM231.724 257H233.01V258.286H231.724V257ZM233.01 257H234.296V258.286H233.01V257ZM229.153 254.429H230.439V255.714H229.153V254.429ZM227.867 258.286H229.153V259.571H227.867V258.286ZM231.724 258.286H233.01V259.571H231.724V258.286ZM233.01 258.286H234.296V259.571H233.01V258.286ZM235.578 257H236.864V258.286H235.578V257ZM235.578 255.714H236.864V257H235.578V255.714ZM236.864 255.714H238.15V257H236.864V255.714ZM236.864 257H238.15V258.286H236.864V257ZM236.864 258.286H238.15V259.571H236.864V258.286ZM236.864 259.571H238.15V260.857H236.864V259.571ZM236.864 260.857H238.15V262.143H236.864V260.857ZM235.578 260.857H236.864V262.143H235.578V260.857ZM235.578 259.571H236.864V260.857H235.578V259.571ZM235.578 258.286H236.864V259.571H235.578V258.286ZM235.578 262.143H236.864V263.429H235.578V262.143ZM236.864 262.143H238.15V263.429H236.864V262.143ZM236.864 263.429H238.15V264.714H236.864V263.429ZM236.864 264.714H238.15V266H236.864V264.714ZM235.578 264.714H236.864V266H235.578V264.714ZM235.578 263.429H236.864V264.714H235.578V263.429ZM242.007 264.714H243.292V266H242.007V264.714ZM243.292 264.714H244.578V266H243.292V264.714ZM243.292 263.429H244.578V264.714H243.292V263.429ZM243.292 262.143H244.578V263.429H243.292V262.143ZM243.292 260.857H244.578V262.143H243.292V260.857ZM243.292 259.571H244.578V260.857H243.292V259.571ZM243.292 258.286H244.578V259.571H243.292V258.286ZM243.292 257H244.578V258.286H243.292V257ZM242.007 259.571H243.292V260.857H242.007V259.571ZM242.007 260.857H243.292V262.143H242.007V260.857ZM242.007 262.143H243.292V263.429H242.007V262.143ZM242.007 263.429H243.292V264.714H242.007V263.429ZM242.007 258.286H243.292V259.571H242.007V258.286ZM238.15 257H239.435V258.286H238.15V257ZM239.435 257H240.721V258.286H239.435V257ZM240.721 257H242.007V258.286H240.721V257ZM240.721 255.714H242.007V257H240.721V255.714ZM242.007 255.714H243.292V257H242.007V255.714ZM242.007 257H243.292V258.286H242.007V257ZM239.435 255.714H240.721V257H239.435V255.714ZM235.578 253.143H236.864V254.429H235.578V253.143ZM236.864 253.143H238.15V254.429H236.864V253.143ZM236.864 254.429H238.15V255.714H236.864V254.429ZM235.578 254.429H236.864V255.714H235.578V254.429Z" fill="#D1029D"/>
<defs>
<filter id="filter0_d_19_2" x="0" y="0" width="355" height="304" filterUnits="userSpaceOnUse" color-interpolation-filters="sRGB">
<feFlood flood-opacity="0" result="BackgroundImageFix"/>
<feColorMatrix in="SourceAlpha" type="matrix" values="0 0 0 0 0 0 0 0 0 0 0 0 0 0 0 0 0 0 127 0" result="hardAlpha"/>
<feOffset dx="3" dy="4"/>
<feGaussianBlur stdDeviation="2"/>
<feComposite in2="hardAlpha" operator="out"/>
<feColorMatrix type="matrix" values="0 0 0 0 0.82101 0 0 0 0 0.00749007 0 0 0 0 0.61763 0 0 0 0.34 0"/>
<feBlend mode="normal" in2="BackgroundImageFix" result="effect1_dropShadow_19_2"/>
<feBlend mode="normal" in="SourceGraphic" in2="effect1_dropShadow_19_2" result="shape"/>
</filter>
</defs>
</svg>
