<svg width="184" height="518" viewBox="0 0 184 518" fill="none" xmlns="http://www.w3.org/2000/svg">
<g filter="url(#filter0_d_2_6)">
<rect x="1" y="1" width="174" height="508" fill="#FFDBFB" stroke="#D1029D"/>
<rect x="23" y="239" width="132" height="84" fill="white" stroke="#D2CBCB"/>
<path d="M23 345H155V429H23V345Z" fill="white"/>
<path d="M23 21H155V105H23V21Z" fill="white"/>
<path d="M21 129H153V213H21V129Z" fill="white"/>
<path d="M23 345H155V429H23V345Z" stroke="#D2CBCB"/>
<path d="M23 21H155V105H23V21Z" stroke="#D2CBCB"/>
<path d="M21 129H153V213H21V129Z" stroke="#D2CBCB"/>
<path d="M48.7757 456.429H50.0614V457.714H48.7757V456.429ZM48.7757 457.714H50.0614V459H48.7757V457.714ZM47.49 457.714H48.7757V459H47.49V457.714ZM47.49 456.429H48.7757V457.714H47.49V456.429ZM46.2042 457.714H47.49V459H46.2042V457.714ZM46.2042 456.429H47.49V457.714H46.2042V456.429ZM44.9185 456.429H46.2042V457.714H44.9185V456.429ZM44.9185 455.143H46.2042V456.429H44.9185V455.143ZM44.9185 453.857H46.2042V455.143H44.9185V453.857ZM44.9185 452.571H46.2042V453.857H44.9185V452.571ZM44.9185 451.286H46.2042V452.571H44.9185V451.286ZM44.9185 450H46.2042V451.286H44.9185V450ZM46.2042 453.857H47.49V455.143H46.2042V453.857ZM46.2042 455.143H47.49V456.429H46.2042V455.143ZM46.2042 452.571H47.49V453.857H46.2042V452.571ZM46.2042 451.286H47.49V452.571H46.2042V451.286ZM46.2042 446.143H47.49V447.429H46.2042V446.143ZM46.2042 447.429H47.49V448.714H46.2042V447.429ZM46.2042 448.714H47.49V450H46.2042V448.714ZM46.2042 450H47.49V451.286H46.2042V450ZM44.9185 448.714H46.2042V450H44.9185V448.714ZM43.6328 450H44.9185V451.286H43.6328V450ZM47.49 450H48.7757V451.286H47.49V450ZM48.7757 450H50.0614V451.286H48.7757V450ZM44.9185 447.429H46.2042V448.714H44.9185V447.429ZM43.6328 451.286H44.9185V452.571H43.6328V451.286ZM47.49 451.286H48.7757V452.571H47.49V451.286ZM48.7757 451.286H50.0614V452.571H48.7757V451.286ZM51.3438 450H52.6295V451.286H51.3438V450ZM51.3438 448.714H52.6295V450H51.3438V448.714ZM52.6295 448.714H53.9152V450H52.6295V448.714ZM52.6295 450H53.9152V451.286H52.6295V450ZM52.6295 451.286H53.9152V452.571H52.6295V451.286ZM52.6295 452.571H53.9152V453.857H52.6295V452.571ZM52.6295 453.857H53.9152V455.143H52.6295V453.857ZM51.3438 453.857H52.6295V455.143H51.3438V453.857ZM51.3438 452.571H52.6295V453.857H51.3438V452.571ZM51.3438 451.286H52.6295V452.571H51.3438V451.286ZM51.3438 455.143H52.6295V456.429H51.3438V455.143ZM52.6295 455.143H53.9152V456.429H52.6295V455.143ZM52.6295 456.429H53.9152V457.714H52.6295V456.429ZM52.6295 457.714H53.9152V459H52.6295V457.714ZM51.3438 457.714H52.6295V459H51.3438V457.714ZM51.3438 456.429H52.6295V457.714H51.3438V456.429ZM57.7723 457.714H59.058V459H57.7723V457.714ZM59.058 457.714H60.3438V459H59.058V457.714ZM59.058 456.429H60.3438V457.714H59.058V456.429ZM59.058 455.143H60.3438V456.429H59.058V455.143ZM59.058 453.857H60.3438V455.143H59.058V453.857ZM59.058 452.571H60.3438V453.857H59.058V452.571ZM59.058 451.286H60.3438V452.571H59.058V451.286ZM59.058 450H60.3438V451.286H59.058V450ZM57.7723 452.571H59.058V453.857H57.7723V452.571ZM57.7723 453.857H59.058V455.143H57.7723V453.857ZM57.7723 455.143H59.058V456.429H57.7723V455.143ZM57.7723 456.429H59.058V457.714H57.7723V456.429ZM57.7723 451.286H59.058V452.571H57.7723V451.286ZM53.9152 450H55.2009V451.286H53.9152V450ZM55.2009 450H56.4866V451.286H55.2009V450ZM56.4866 450H57.7723V451.286H56.4866V450ZM56.4866 448.714H57.7723V450H56.4866V448.714ZM57.7723 448.714H59.058V450H57.7723V448.714ZM57.7723 450H59.058V451.286H57.7723V450ZM55.2009 448.714H56.4866V450H55.2009V448.714ZM51.3438 446.143H52.6295V447.429H51.3438V446.143ZM52.6295 446.143H53.9152V447.429H52.6295V446.143ZM52.6295 447.429H53.9152V448.714H52.6295V447.429ZM51.3438 447.429H52.6295V448.714H51.3438V447.429ZM64.2042 448.714H65.49V450H64.2042V448.714ZM62.9185 448.714H64.2042V450H62.9185V448.714ZM62.9185 450H64.2042V451.286H62.9185V450ZM64.2042 450H65.49V451.286H64.2042V450ZM65.49 448.714H66.7757V450H65.49V448.714ZM66.7757 448.714H68.0614V450H66.7757V448.714ZM68.0614 448.714H69.3471V450H68.0614V448.714ZM68.0614 450H69.3471V451.286H68.0614V450ZM66.7757 450H68.0614V451.286H66.7757V450ZM69.3471 450H70.6328V451.286H69.3471V450ZM69.3471 451.286H70.6328V452.571H69.3471V451.286ZM69.3471 456.429H70.6328V457.714H69.3471V456.429ZM68.0614 456.429H69.3471V457.714H68.0614V456.429ZM68.0614 451.286H69.3471V452.571H68.0614V451.286ZM66.7757 456.429H68.0614V457.714H66.7757V456.429ZM68.0614 457.714H69.3471V459H68.0614V457.714ZM66.7757 457.714H68.0614V459H66.7757V457.714ZM65.49 457.714H66.7757V459H65.49V457.714ZM64.2042 457.714H65.49V459H64.2042V457.714ZM62.9185 457.714H64.2042V459H62.9185V457.714ZM62.9185 456.429H64.2042V457.714H62.9185V456.429ZM64.2042 456.429H65.49V457.714H64.2042V456.429ZM62.9185 455.143H64.2042V456.429H62.9185V455.143ZM61.6328 456.429H62.9185V457.714H61.6328V456.429ZM61.6328 455.143H62.9185V456.429H61.6328V455.143ZM61.6328 453.857H62.9185V455.143H61.6328V453.857ZM61.6328 452.571H62.9185V453.857H61.6328V452.571ZM61.6328 451.286H62.9185V452.571H61.6328V451.286ZM61.6328 450H62.9185V451.286H61.6328V450ZM62.9185 451.286H64.2042V452.571H62.9185V451.286ZM62.9185 452.571H64.2042V453.857H62.9185V452.571ZM62.9185 453.857H64.2042V455.143H62.9185V453.857ZM65.49 456.429H66.7757V457.714H65.49V456.429ZM65.49 450H66.7757V451.286H65.49V450ZM68.0614 452.571H69.3471V453.857H68.0614V452.571ZM69.3471 452.571H70.6328V453.857H69.3471V452.571ZM64.2042 453.857H65.49V455.143H64.2042V453.857ZM65.49 453.857H66.7757V455.143H65.49V453.857ZM66.7757 453.857H68.0614V455.143H66.7757V453.857ZM68.0614 453.857H69.3471V455.143H68.0614V453.857ZM69.3471 453.857H70.6328V455.143H69.3471V453.857ZM66.7757 452.571H68.0614V453.857H66.7757V452.571ZM65.49 452.571H66.7757V453.857H65.49V452.571ZM64.2042 452.571H65.49V453.857H64.2042V452.571ZM77.0547 448.714H78.3404V450H77.0547V448.714ZM78.3404 448.714H79.6261V450H78.3404V448.714ZM78.3404 450H79.6261V451.286H78.3404V450ZM78.3404 451.286H79.6261V452.571H78.3404V451.286ZM78.3404 452.571H79.6261V453.857H78.3404V452.571ZM78.3404 453.857H79.6261V455.143H78.3404V453.857ZM77.0547 453.857H78.3404V455.143H77.0547V453.857ZM77.0547 452.571H78.3404V453.857H77.0547V452.571ZM77.0547 451.286H78.3404V452.571H77.0547V451.286ZM77.0547 450H78.3404V451.286H77.0547V450ZM78.3404 455.143H79.6261V456.429H78.3404V455.143ZM79.6261 455.143H80.9118V456.429H79.6261V455.143ZM79.6261 456.429H80.9118V457.714H79.6261V456.429ZM80.9118 456.429H82.1975V457.714H80.9118V456.429ZM80.9118 457.714H82.1975V459H80.9118V457.714ZM82.1975 456.429H83.4833V457.714H82.1975V456.429ZM82.1975 455.143H83.4833V456.429H82.1975V455.143ZM83.4833 455.143H84.769V456.429H83.4833V455.143ZM83.4833 453.857H84.769V455.143H83.4833V453.857ZM83.4833 452.571H84.769V453.857H83.4833V452.571ZM83.4833 451.286H84.769V452.571H83.4833V451.286ZM83.4833 450H84.769V451.286H83.4833V450ZM83.4833 448.714H84.769V450H83.4833V448.714ZM84.769 452.571H86.0547V453.857H84.769V452.571ZM84.769 453.857H86.0547V455.143H84.769V453.857ZM84.769 451.286H86.0547V452.571H84.769V451.286ZM84.769 450H86.0547V451.286H84.769V450ZM84.769 448.714H86.0547V450H84.769V448.714ZM80.9118 455.143H82.1975V456.429H80.9118V455.143ZM79.6261 453.857H80.9118V455.143H79.6261V453.857ZM82.1975 453.857H83.4833V455.143H82.1975V453.857ZM87.3438 446.143H89.9152V448.714H87.3438V446.143ZM87.3438 450H89.9152V459H87.3438V450ZM91.2109 450H92.4967V451.286H91.2109V450ZM91.2109 448.714H92.4967V450H91.2109V448.714ZM92.4967 448.714H93.7824V450H92.4967V448.714ZM92.4967 450H93.7824V451.286H92.4967V450ZM92.4967 451.286H93.7824V452.571H92.4967V451.286ZM92.4967 452.571H93.7824V453.857H92.4967V452.571ZM92.4967 453.857H93.7824V455.143H92.4967V453.857ZM91.2109 453.857H92.4967V455.143H91.2109V453.857ZM91.2109 452.571H92.4967V453.857H91.2109V452.571ZM91.2109 451.286H92.4967V452.571H91.2109V451.286ZM91.2109 455.143H92.4967V456.429H91.2109V455.143ZM92.4967 455.143H93.7824V456.429H92.4967V455.143ZM92.4967 456.429H93.7824V457.714H92.4967V456.429ZM92.4967 457.714H93.7824V459H92.4967V457.714ZM91.2109 457.714H92.4967V459H91.2109V457.714ZM91.2109 456.429H92.4967V457.714H91.2109V456.429ZM93.7824 450H95.0681V451.286H93.7824V450ZM95.0681 450H96.3538V451.286H95.0681V450ZM96.3538 450H97.6395V451.286H96.3538V450ZM96.3538 448.714H97.6395V450H96.3538V448.714ZM95.0681 448.714H96.3538V450H95.0681V448.714ZM93.7824 451.286H95.0681V452.571H93.7824V451.286ZM97.6395 450H98.9252V451.286H97.6395V450ZM96.3538 451.286H97.6395V452.571H96.3538V451.286ZM105.354 456.429H106.64V457.714H105.354V456.429ZM105.354 457.714H106.64V459H105.354V457.714ZM104.068 457.714H105.354V459H104.068V457.714ZM104.068 456.429H105.354V457.714H104.068V456.429ZM102.782 457.714H104.068V459H102.782V457.714ZM102.782 456.429H104.068V457.714H102.782V456.429ZM101.497 456.429H102.782V457.714H101.497V456.429ZM101.497 455.143H102.782V456.429H101.497V455.143ZM101.497 453.857H102.782V455.143H101.497V453.857ZM101.497 452.571H102.782V453.857H101.497V452.571ZM101.497 451.286H102.782V452.571H101.497V451.286ZM101.497 450H102.782V451.286H101.497V450ZM102.782 453.857H104.068V455.143H102.782V453.857ZM102.782 455.143H104.068V456.429H102.782V455.143ZM102.782 452.571H104.068V453.857H102.782V452.571ZM102.782 451.286H104.068V452.571H102.782V451.286ZM102.782 446.143H104.068V447.429H102.782V446.143ZM102.782 447.429H104.068V448.714H102.782V447.429ZM102.782 448.714H104.068V450H102.782V448.714ZM102.782 450H104.068V451.286H102.782V450ZM101.497 448.714H102.782V450H101.497V448.714ZM100.211 450H101.497V451.286H100.211V450ZM104.068 450H105.354V451.286H104.068V450ZM105.354 450H106.64V451.286H105.354V450ZM101.497 447.429H102.782V448.714H101.497V447.429ZM100.211 451.286H101.497V452.571H100.211V451.286ZM104.068 451.286H105.354V452.571H104.068V451.286ZM105.354 451.286H106.64V452.571H105.354V451.286ZM116.922 457.714H115.636V456.429H116.922V457.714ZM116.922 459H115.636V457.714H116.922V459ZM115.636 459H114.35V457.714H115.636V459ZM115.636 457.714H114.35V456.429H115.636V457.714ZM115.636 456.429H114.35V455.143H115.636V456.429ZM115.636 455.143H114.35V453.857H115.636V455.143ZM115.636 453.857H114.35V452.571H115.636V453.857ZM116.922 453.857H115.636V452.571H116.922V453.857ZM116.922 455.143H115.636V453.857H116.922V455.143ZM116.922 456.429H115.636V455.143H116.922V456.429ZM116.922 452.571H115.636V451.286H116.922V452.571ZM115.636 452.571H114.35V451.286H115.636V452.571ZM115.636 451.286H114.35V450H115.636V451.286ZM115.636 450H114.35V448.714H115.636V450ZM116.922 450H115.636V448.714H116.922V450ZM116.922 451.286H115.636V450H116.922V451.286ZM110.493 450H109.208V448.714H110.493V450ZM109.208 450H107.922V448.714H109.208V450ZM109.208 451.286H107.922V450H109.208V451.286ZM109.208 452.571H107.922V451.286H109.208V452.571ZM109.208 453.857H107.922V452.571H109.208V453.857ZM109.208 455.143H107.922V453.857H109.208V455.143ZM109.208 456.429H107.922V455.143H109.208V456.429ZM109.208 457.714H107.922V456.429H109.208V457.714ZM110.493 455.143H109.208V453.857H110.493V455.143ZM110.493 453.857H109.208V452.571H110.493V453.857ZM110.493 452.571H109.208V451.286H110.493V452.571ZM110.493 451.286H109.208V450H110.493V451.286ZM110.493 456.429H109.208V455.143H110.493V456.429ZM114.35 457.714H113.065V456.429H114.35V457.714ZM113.065 457.714H111.779V456.429H113.065V457.714ZM111.779 457.714H110.493V456.429H111.779V457.714ZM111.779 459H110.493V457.714H111.779V459ZM110.493 459H109.208V457.714H110.493V459ZM110.493 457.714H109.208V456.429H110.493V457.714ZM113.065 459H111.779V457.714H113.065V459ZM125.925 459H124.64V457.714H125.925V459ZM125.925 457.714H124.64V456.429H125.925V457.714ZM124.64 457.714H123.354V456.429H124.64V457.714ZM123.354 459H122.068V457.714H123.354V459ZM122.068 459H120.782V457.714H122.068V459ZM120.782 459H119.497V457.714H120.782V459ZM120.782 457.714H119.497V456.429H120.782V457.714ZM122.068 457.714H120.782V456.429H122.068V457.714ZM119.497 457.714H118.211V456.429H119.497V457.714ZM119.497 456.429H118.211V455.143H119.497V456.429ZM119.497 451.286H118.211V450H119.497V451.286ZM120.782 451.286H119.497V450H120.782V451.286ZM120.782 456.429H119.497V455.143H120.782V456.429ZM122.068 451.286H120.782V450H122.068V451.286ZM120.782 450H119.497V448.714H120.782V450ZM122.068 450H120.782V448.714H122.068V450ZM123.354 450H122.068V448.714H123.354V450ZM124.64 450H123.354V448.714H124.64V450ZM125.925 450H124.64V448.714H125.925V450ZM125.925 451.286H124.64V450H125.925V451.286ZM124.64 451.286H123.354V450H124.64V451.286ZM125.925 452.571H124.64V451.286H125.925V452.571ZM127.211 451.286H125.925V450H127.211V451.286ZM127.211 452.571H125.925V451.286H127.211V452.571ZM127.211 453.857H125.925V452.571H127.211V453.857ZM127.211 455.143H125.925V453.857H127.211V455.143ZM127.211 456.429H125.925V455.143H127.211V456.429ZM127.211 457.714H125.925V456.429H127.211V457.714ZM125.925 456.429H124.64V455.143H125.925V456.429ZM125.925 455.143H124.64V453.857H125.925V455.143ZM125.925 453.857H124.64V452.571H125.925V453.857ZM123.354 451.286H122.068V450H123.354V451.286ZM123.354 457.714H122.068V456.429H123.354V457.714ZM125.925 457.714H127.211V459H125.925V457.714ZM123.354 452.571H124.64V453.857H123.354V452.571ZM122.068 452.571H123.354V453.857H122.068V452.571ZM120.782 452.571H122.068V453.857H120.782V452.571ZM119.497 452.571H120.782V453.857H119.497V452.571ZM118.211 453.857H119.497V455.143H118.211V453.857ZM119.497 453.857H120.782V455.143H119.497V453.857ZM123.354 453.857H124.64V455.143H123.354V453.857ZM122.068 453.857H123.354V455.143H122.068V453.857ZM120.782 453.857H122.068V455.143H120.782V453.857ZM128.5 446.143H129.786V447.429H128.5V446.143ZM129.786 446.143H131.071V447.429H129.786V446.143ZM129.786 447.429H131.071V448.714H129.786V447.429ZM129.786 448.714H131.071V450H129.786V448.714ZM129.786 450H131.071V451.286H129.786V450ZM129.786 451.286H131.071V452.571H129.786V451.286ZM129.786 452.571H131.071V453.857H129.786V452.571ZM128.5 452.571H129.786V453.857H128.5V452.571ZM128.5 453.857H129.786V455.143H128.5V453.857ZM128.5 455.143H129.786V456.429H128.5V455.143ZM128.5 456.429H129.786V457.714H128.5V456.429ZM128.5 457.714H129.786V459H128.5V457.714ZM129.786 457.714H131.071V459H129.786V457.714ZM129.786 456.429H131.071V457.714H129.786V456.429ZM129.786 455.143H131.071V456.429H129.786V455.143ZM129.786 453.857H131.071V455.143H129.786V453.857ZM128.5 451.286H129.786V452.571H128.5V451.286ZM128.5 450H129.786V451.286H128.5V450ZM128.5 448.714H129.786V450H128.5V448.714ZM128.5 447.429H129.786V448.714H128.5V447.429ZM63.5664 476H64.8521V477.286H63.5664V476ZM63.5664 474.714H64.8521V476H63.5664V474.714ZM64.8521 474.714H66.1378V476H64.8521V474.714ZM64.8521 476H66.1378V477.286H64.8521V476ZM64.8521 477.286H66.1378V478.571H64.8521V477.286ZM64.8521 478.571H66.1378V479.857H64.8521V478.571ZM64.8521 479.857H66.1378V481.143H64.8521V479.857ZM63.5664 479.857H64.8521V481.143H63.5664V479.857ZM63.5664 478.571H64.8521V479.857H63.5664V478.571ZM63.5664 477.286H64.8521V478.571H63.5664V477.286ZM63.5664 481.143H64.8521V482.429H63.5664V481.143ZM64.8521 481.143H66.1378V482.429H64.8521V481.143ZM64.8521 482.429H66.1378V483.714H64.8521V482.429ZM64.8521 483.714H66.1378V485H64.8521V483.714ZM63.5664 483.714H64.8521V485H63.5664V483.714ZM63.5664 482.429H64.8521V483.714H63.5664V482.429ZM69.995 483.714H71.2807V485H69.995V483.714ZM71.2807 482.429H72.5664V483.714H71.2807V482.429ZM71.2807 481.143H72.5664V482.429H71.2807V481.143ZM71.2807 479.857H72.5664V481.143H71.2807V479.857ZM71.2807 478.571H72.5664V479.857H71.2807V478.571ZM71.2807 477.286H72.5664V478.571H71.2807V477.286ZM71.2807 476H72.5664V477.286H71.2807V476ZM69.995 478.571H71.2807V479.857H69.995V478.571ZM69.995 479.857H71.2807V481.143H69.995V479.857ZM69.995 481.143H71.2807V482.429H69.995V481.143ZM69.995 482.429H71.2807V483.714H69.995V482.429ZM69.995 477.286H71.2807V478.571H69.995V477.286ZM66.1378 476H67.4235V477.286H66.1378V476ZM67.4235 476H68.7093V477.286H67.4235V476ZM68.7093 476H69.995V477.286H68.7093V476ZM68.7093 474.714H69.995V476H68.7093V474.714ZM69.995 474.714H71.2807V476H69.995V474.714ZM69.995 476H71.2807V477.286H69.995V476ZM67.4235 474.714H68.7093V476H67.4235V474.714ZM63.5664 472.143H64.8521V473.429H63.5664V472.143ZM64.8521 472.143H66.1378V473.429H64.8521V472.143ZM64.8521 473.429H66.1378V474.714H64.8521V473.429ZM63.5664 473.429H64.8521V474.714H63.5664V473.429ZM66.1378 483.714H67.4235V485H66.1378V483.714ZM67.4235 483.714H68.7093V485H67.4235V483.714ZM68.7093 483.714H69.995V485H68.7093V483.714ZM68.7093 482.429H69.995V483.714H68.7093V482.429ZM67.4235 482.429H68.7093V483.714H67.4235V482.429ZM66.1378 482.429H67.4235V483.714H66.1378V482.429ZM76.4269 474.714H77.7126V476H76.4269V474.714ZM75.1412 474.714H76.4269V476H75.1412V474.714ZM75.1412 476H76.4269V477.286H75.1412V476ZM76.4269 476H77.7126V477.286H76.4269V476ZM77.7126 474.714H78.9983V476H77.7126V474.714ZM78.9983 474.714H80.284V476H78.9983V474.714ZM80.284 474.714H81.5698V476H80.284V474.714ZM80.284 476H81.5698V477.286H80.284V476ZM78.9983 476H80.284V477.286H78.9983V476ZM80.284 478.571H81.5698V479.857H80.284V478.571ZM81.5698 476H82.8555V477.286H81.5698V476ZM81.5698 477.286H82.8555V478.571H81.5698V477.286ZM81.5698 478.571H82.8555V479.857H81.5698V478.571ZM81.5698 479.857H82.8555V481.143H81.5698V479.857ZM81.5698 481.143H82.8555V482.429H81.5698V481.143ZM81.5698 482.429H82.8555V483.714H81.5698V482.429ZM80.284 482.429H81.5698V483.714H80.284V482.429ZM80.284 481.143H81.5698V482.429H80.284V481.143ZM80.284 479.857H81.5698V481.143H80.284V479.857ZM80.284 477.286H81.5698V478.571H80.284V477.286ZM78.9983 482.429H80.284V483.714H78.9983V482.429ZM80.284 483.714H81.5698V485H80.284V483.714ZM78.9983 483.714H80.284V485H78.9983V483.714ZM77.7126 483.714H78.9983V485H77.7126V483.714ZM76.4269 483.714H77.7126V485H76.4269V483.714ZM75.1412 483.714H76.4269V485H75.1412V483.714ZM75.1412 482.429H76.4269V483.714H75.1412V482.429ZM76.4269 482.429H77.7126V483.714H76.4269V482.429ZM75.1412 481.143H76.4269V482.429H75.1412V481.143ZM73.8555 482.429H75.1412V483.714H73.8555V482.429ZM73.8555 481.143H75.1412V482.429H73.8555V481.143ZM73.8555 479.857H75.1412V481.143H73.8555V479.857ZM73.8555 478.571H75.1412V479.857H73.8555V478.571ZM73.8555 477.286H75.1412V478.571H73.8555V477.286ZM73.8555 476H75.1412V477.286H73.8555V476ZM75.1412 477.286H76.4269V478.571H75.1412V477.286ZM75.1412 478.571H76.4269V479.857H75.1412V478.571ZM75.1412 479.857H76.4269V481.143H75.1412V479.857ZM77.7126 482.429H78.9983V483.714H77.7126V482.429ZM77.7126 476H78.9983V477.286H77.7126V476ZM86.716 474.714H88.0017V476H86.716V474.714ZM85.4302 474.714H86.716V476H85.4302V474.714ZM85.4302 476H86.716V477.286H85.4302V476ZM86.716 476H88.0017V477.286H86.716V476ZM88.0017 474.714H89.2874V476H88.0017V474.714ZM89.2874 474.714H90.5731V476H89.2874V474.714ZM90.5731 474.714H91.8588V476H90.5731V474.714ZM90.5731 476H91.8588V477.286H90.5731V476ZM89.2874 476H90.5731V477.286H89.2874V476ZM90.5731 478.571H91.8588V479.857H90.5731V478.571ZM91.8588 476H93.1445V477.286H91.8588V476ZM91.8588 477.286H93.1445V478.571H91.8588V477.286ZM91.8588 478.571H93.1445V479.857H91.8588V478.571ZM91.8588 479.857H93.1445V481.143H91.8588V479.857ZM91.8588 481.143H93.1445V482.429H91.8588V481.143ZM91.8588 482.429H93.1445V483.714H91.8588V482.429ZM90.5731 482.429H91.8588V483.714H90.5731V482.429ZM90.5731 481.143H91.8588V482.429H90.5731V481.143ZM90.5731 479.857H91.8588V481.143H90.5731V479.857ZM90.5731 477.286H91.8588V478.571H90.5731V477.286ZM89.2874 482.429H90.5731V483.714H89.2874V482.429ZM90.5731 483.714H91.8588V485H90.5731V483.714ZM89.2874 483.714H90.5731V485H89.2874V483.714ZM88.0017 483.714H89.2874V485H88.0017V483.714ZM86.716 483.714H88.0017V485H86.716V483.714ZM85.4302 483.714H86.716V485H85.4302V483.714ZM85.4302 482.429H86.716V483.714H85.4302V482.429ZM86.716 482.429H88.0017V483.714H86.716V482.429ZM85.4302 481.143H86.716V482.429H85.4302V481.143ZM84.1445 482.429H85.4302V483.714H84.1445V482.429ZM84.1445 481.143H85.4302V482.429H84.1445V481.143ZM84.1445 479.857H85.4302V481.143H84.1445V479.857ZM84.1445 478.571H85.4302V479.857H84.1445V478.571ZM84.1445 477.286H85.4302V478.571H84.1445V477.286ZM84.1445 476H85.4302V477.286H84.1445V476ZM85.4302 477.286H86.716V478.571H85.4302V477.286ZM85.4302 478.571H86.716V479.857H85.4302V478.571ZM85.4302 479.857H86.716V481.143H85.4302V479.857ZM88.0017 482.429H89.2874V483.714H88.0017V482.429ZM88.0017 476H89.2874V477.286H88.0017V476ZM99.5765 482.429H100.862V483.714H99.5765V482.429ZM99.5765 483.714H100.862V485H99.5765V483.714ZM98.2907 483.714H99.5765V485H98.2907V483.714ZM98.2907 482.429H99.5765V483.714H98.2907V482.429ZM97.005 483.714H98.2907V485H97.005V483.714ZM97.005 482.429H98.2907V483.714H97.005V482.429ZM95.7193 482.429H97.005V483.714H95.7193V482.429ZM95.7193 481.143H97.005V482.429H95.7193V481.143ZM95.7193 479.857H97.005V481.143H95.7193V479.857ZM95.7193 478.571H97.005V479.857H95.7193V478.571ZM95.7193 477.286H97.005V478.571H95.7193V477.286ZM95.7193 476H97.005V477.286H95.7193V476ZM97.005 479.857H98.2907V481.143H97.005V479.857ZM97.005 481.143H98.2907V482.429H97.005V481.143ZM97.005 478.571H98.2907V479.857H97.005V478.571ZM97.005 477.286H98.2907V478.571H97.005V477.286ZM97.005 472.143H98.2907V473.429H97.005V472.143ZM97.005 473.429H98.2907V474.714H97.005V473.429ZM97.005 474.714H98.2907V476H97.005V474.714ZM97.005 476H98.2907V477.286H97.005V476ZM95.7193 474.714H97.005V476H95.7193V474.714ZM94.4336 476H95.7193V477.286H94.4336V476ZM98.2907 476H99.5765V477.286H98.2907V476ZM99.5765 476H100.862V477.286H99.5765V476ZM95.7193 473.429H97.005V474.714H95.7193V473.429ZM94.4336 477.286H95.7193V478.571H94.4336V477.286ZM98.2907 477.286H99.5765V478.571H98.2907V477.286ZM99.5765 477.286H100.862V478.571H99.5765V477.286ZM102.145 476H103.43V477.286H102.145V476ZM102.145 474.714H103.43V476H102.145V474.714ZM103.43 474.714H104.716V476H103.43V474.714ZM103.43 476H104.716V477.286H103.43V476ZM103.43 477.286H104.716V478.571H103.43V477.286ZM103.43 478.571H104.716V479.857H103.43V478.571ZM103.43 479.857H104.716V481.143H103.43V479.857ZM102.145 479.857H103.43V481.143H102.145V479.857ZM102.145 478.571H103.43V479.857H102.145V478.571ZM102.145 477.286H103.43V478.571H102.145V477.286ZM102.145 481.143H103.43V482.429H102.145V481.143ZM103.43 481.143H104.716V482.429H103.43V481.143ZM103.43 482.429H104.716V483.714H103.43V482.429ZM103.43 483.714H104.716V485H103.43V483.714ZM102.145 483.714H103.43V485H102.145V483.714ZM102.145 482.429H103.43V483.714H102.145V482.429ZM108.573 483.714H109.859V485H108.573V483.714ZM109.859 483.714H111.145V485H109.859V483.714ZM109.859 482.429H111.145V483.714H109.859V482.429ZM109.859 481.143H111.145V482.429H109.859V481.143ZM109.859 479.857H111.145V481.143H109.859V479.857ZM109.859 478.571H111.145V479.857H109.859V478.571ZM109.859 477.286H111.145V478.571H109.859V477.286ZM109.859 476H111.145V477.286H109.859V476ZM108.573 478.571H109.859V479.857H108.573V478.571ZM108.573 479.857H109.859V481.143H108.573V479.857ZM108.573 481.143H109.859V482.429H108.573V481.143ZM108.573 482.429H109.859V483.714H108.573V482.429ZM108.573 477.286H109.859V478.571H108.573V477.286ZM104.716 476H106.002V477.286H104.716V476ZM106.002 476H107.287V477.286H106.002V476ZM107.287 476H108.573V477.286H107.287V476ZM107.287 474.714H108.573V476H107.287V474.714ZM108.573 474.714H109.859V476H108.573V474.714ZM108.573 476H109.859V477.286H108.573V476ZM106.002 474.714H107.287V476H106.002V474.714ZM102.145 472.143H103.43V473.429H102.145V472.143ZM103.43 472.143H104.716V473.429H103.43V472.143ZM103.43 473.429H104.716V474.714H103.43V473.429ZM102.145 473.429H103.43V474.714H102.145V473.429Z" fill="#D1029D"/>
</g>
<defs>
<filter id="filter0_d_2_6" x="0.5" y="0.5" width="183" height="517" filterUnits="userSpaceOnUse" color-interpolation-filters="sRGB">
<feFlood flood-opacity="0" result="BackgroundImageFix"/>
<feColorMatrix in="SourceAlpha" type="matrix" values="0 0 0 0 0 0 0 0 0 0 0 0 0 0 0 0 0 0 127 0" result="hardAlpha"/>
<feOffset dx="4" dy="4"/>
<feGaussianBlur stdDeviation="2"/>
<feComposite in2="hardAlpha" operator="out"/>
<feColorMatrix type="matrix" values="0 0 0 0 0.82101 0 0 0 0 0.00749007 0 0 0 0 0.61763 0 0 0 0.26 0"/>
<feBlend mode="normal" in2="BackgroundImageFix" result="effect1_dropShadow_2_6"/>
<feBlend mode="normal" in="SourceGraphic" in2="effect1_dropShadow_2_6" result="shape"/>
</filter>
</defs>
</svg>
